Formula One 2011 Season

Turkey Grand Prix Qualifying in High Definition

Race 5: Spanish Grand Prix, Curcuit De Catalunya

Record Source: BBC One HD
Original Format: MPEG TS Stream
Date: Sunday 22nd May 2011
Time: 12:10 to 15:15

Jake Humphrey, Martin Brundle, David Coulthard & Eddie Jordan present the F1 coverage to the 4th Race
meeting of the 2011 Formula One season, The Turkish Grand Prix, from the Instanbul Park Curcuit.

This is the Race Only, NO BUILD UP COVERAGE.. I always encode the race build up seperately and include both files, However
I suffered a MFT/hard drive partition failure today and the Race Build Up file I encoded was unrecoverable. 
I do have the original .ts file and will recode the build up coverage again overnight and upload it tomorrow if anyone is 
still interested in seeing it at that point. Apologies, but these things do happen!

Ive tested these recoded files myself on a LCD 50" Full HD LG TV, and the quality is excellent.

I hope you all enjoy the Formula 1 coverage in HD, and DONT complain about the increased file sizes! 
If you all seed for as long as you can, you will all get a fast download!

I hope you all enjoy the Formula 1 coverage in HD....


Complete name                    : F1 2011 Spain Race HD.1080.H264.AC3.DD.mkv
Format                           : Matroska
File size                        : 3.08 GiB
Duration                         : 2h 18mn
Overall bit rate                 : 3 177 Kbps
Writing application              : HandBrake 0.9.5
Writing library                  : libmkv 0.6.4.1

Video
ID                               : 1
Format                           : AVC
Format/Info                      : Advanced Video Codec
Format profile                   : Main@L4.0
Format settings, CABAC           : Yes
Format settings, ReFrames        : 4 frames
Codec ID                         : V_MPEG4/ISO/AVC
Duration                         : 2h 18mn
Bit rate                         : 3 050 Kbps
Width                            : 1 440 pixels
Height                           : 1 078 pixels
Display aspect ratio             : 16:9
Frame rate mode                  : Variable
Frame rate                       : 25.000 fps
Color space                      : YUV
Chroma subsampling               : 4:2:0
Bit depth                        : 8 bits
Scan type                        : Progressive
Bits/(Pixel*Frame)               : 0.079
Stream size                      : 2.90 GiB (94%)
Writing library                  : x264 core 112

Language                         : English
Color primaries                  : BT.709-5, BT.1361, IEC 61966-2-4, SMPTE RP177
Transfer characteristics         : BT.709-5, BT.1361
Matrix coefficients              : BT.709-5, BT.1361, IEC 61966-2-4 709, SMPTE RP177
Audio
ID                               : 2
Format                           : AC-3
Format/Info                      : Audio Coding 3
Mode extension                   : CM (complete main)
Codec ID                         : A_AC3
Duration                         : 2h 18mn
Bit rate mode                    : Constant
Bit rate                         : 128 Kbps
Channel(s)                       : 2 channels
Channel positions                : Front: L R
Sampling rate                    : 48.0 KHz
Bit depth                        : 16 bits
Compression mode                 : Lossy
Stream size                      : 127 MiB (4%)
Language                         : English



Enjoy, The Blacknight
